<?xml version="1.0" encoding="utf-8"?>
<!-- Generator: Adobe Illustrator 14.0.0, SVG Export Plug-In  -->
<!DOCTYPE svg PUBLIC "-//W3C//DTD SVG 1.1//EN" "http://www.w3.org/Graphics/SVG/1.1/DTD/svg11.dtd" [
	<!ENTITY ns_flows "http://ns.adobe.com/Flows/1.0/">
]>
<svg version="1.1"
	 xmlns="http://www.w3.org/2000/svg" xmlns:xlink="http://www.w3.org/1999/xlink" xmlns:a="http://ns.adobe.com/AdobeSVGViewerExtensions/3.0/"
	 x="0px" y="0px" width="288px" height="144px" viewBox="-16.438 -46.686 288 144" enable-background="new -16.438 -46.686 288 144"
	 xml:space="preserve">
<defs>
</defs>
<path fill="#FFFFFF" stroke="#272D29" d="M16.592,35.295v-2.041c-0.792,0.823-1.733,1.432-2.825,1.827s-2.271,0.594-3.536,0.594
	c-1.424,0-2.738-0.246-3.94-0.736c-1.203-0.49-2.231-1.187-3.085-2.088c-0.854-0.902-1.519-1.978-1.994-3.229
	C0.737,28.373,0.5,27.004,0.5,25.517c0-1.455,0.261-2.824,0.783-4.106c0.522-1.281,1.234-2.396,2.136-3.347
	c0.902-0.949,1.946-1.701,3.133-2.254c1.187-0.553,2.444-0.831,3.773-0.831s2.484,0.174,3.465,0.522
	c0.98,0.349,1.851,0.839,2.611,1.471V0.5h3.75v34.795H16.592z M16.402,20.817c-0.633-0.76-1.432-1.4-2.397-1.923
	s-2.097-0.783-3.394-0.783c-0.949,0-1.812,0.182-2.587,0.546c-0.776,0.364-1.448,0.87-2.017,1.519
	c-0.57,0.649-1.013,1.417-1.329,2.303c-0.317,0.886-0.475,1.867-0.475,2.943c0,0.98,0.15,1.906,0.451,2.776
	c0.3,0.871,0.736,1.63,1.305,2.278c0.57,0.649,1.266,1.156,2.089,1.52c0.822,0.364,1.756,0.546,2.801,0.546
	c1.202,0,2.262-0.237,3.18-0.712c0.917-0.475,1.709-1.107,2.374-1.899V20.817z"/>
<path fill="#FFFFFF" stroke="#272D29" d="M43.126,24.567c0,0.349-0.008,0.664-0.023,0.949c-0.017,0.284-0.056,0.602-0.119,0.949
	H28.363c0.095,0.854,0.3,1.646,0.617,2.373c0.316,0.729,0.767,1.361,1.353,1.899c0.585,0.538,1.329,0.957,2.231,1.258
	s1.985,0.451,3.251,0.451c0.823,0,1.716-0.103,2.682-0.309c0.965-0.206,1.906-0.467,2.824-0.783l0.665,3.18
	c-1.139,0.349-2.278,0.626-3.418,0.831c-1.139,0.205-2.168,0.309-3.085,0.309c-1.804,0-3.378-0.261-4.723-0.783
	c-1.346-0.522-2.469-1.25-3.371-2.184s-1.575-2.025-2.017-3.275c-0.444-1.25-0.665-2.587-0.665-4.011c0-1.36,0.213-2.675,0.641-3.94
	s1.052-2.381,1.875-3.347c0.823-0.965,1.835-1.732,3.038-2.302c1.202-0.569,2.579-0.854,4.13-0.854c1.424,0,2.674,0.246,3.75,0.736
	c1.075,0.491,1.985,1.163,2.729,2.018c0.743,0.854,1.306,1.867,1.686,3.038C42.936,21.94,43.126,23.207,43.126,24.567z
	 M39.661,23.617c-0.126-1.55-0.633-2.855-1.519-3.916c-0.887-1.06-2.216-1.59-3.988-1.59c-1.614,0-2.903,0.49-3.869,1.472
	s-1.559,2.325-1.78,4.034H39.661z"/>
<path fill="#FFFFFF" stroke="#272D29" d="M59.692,29.409c0,0.823-0.159,1.613-0.475,2.373c-0.317,0.76-0.768,1.424-1.353,1.994
	c-0.586,0.569-1.282,1.028-2.088,1.376c-0.807,0.348-1.702,0.522-2.682,0.522c-1.393,0-2.674-0.23-3.845-0.688
	c-1.171-0.458-2.263-1.1-3.275-1.923l1.898-2.658c0.76,0.697,1.598,1.243,2.516,1.638c0.917,0.396,1.756,0.594,2.516,0.594
	c1.17,0,2.033-0.253,2.587-0.76c0.554-0.506,0.831-1.202,0.831-2.089c0-0.664-0.23-1.202-0.688-1.613
	c-0.459-0.411-1.037-0.775-1.732-1.092c-0.697-0.316-1.44-0.633-2.231-0.949c-0.792-0.316-1.536-0.696-2.231-1.14
	c-0.697-0.442-1.274-0.988-1.733-1.638c-0.459-0.648-0.688-1.463-0.688-2.444c0-0.791,0.158-1.543,0.475-2.255
	c0.316-0.712,0.767-1.345,1.353-1.899c0.585-0.553,1.297-0.989,2.136-1.305c0.838-0.316,1.78-0.475,2.824-0.475
	c1.044,0,2.081,0.19,3.109,0.57c1.028,0.38,1.922,0.823,2.682,1.329l-1.662,2.801c-0.633-0.443-1.298-0.83-1.994-1.163
	c-0.696-0.332-1.456-0.499-2.278-0.499c-1.139,0-1.963,0.246-2.468,0.736c-0.507,0.491-0.76,1.1-0.76,1.827
	c0,0.57,0.229,1.037,0.688,1.4c0.458,0.364,1.028,0.705,1.708,1.021c0.68,0.317,1.424,0.634,2.231,0.95
	c0.807,0.316,1.55,0.712,2.231,1.187c0.68,0.475,1.25,1.053,1.708,1.732C59.462,27.55,59.692,28.396,59.692,29.409z"/>
<path fill="#FFFFFF" stroke="#272D29" d="M68.474,8.475c0,0.633-0.23,1.187-0.688,1.661c-0.459,0.475-1.021,0.712-1.685,0.712
	s-1.227-0.237-1.685-0.712c-0.459-0.475-0.688-1.028-0.688-1.661c0-0.665,0.229-1.234,0.688-1.709
	c0.458-0.475,1.021-0.712,1.685-0.712s1.226,0.237,1.685,0.712C68.244,7.241,68.474,7.811,68.474,8.475z M64.201,35.295V15.358h3.75
	v19.937H64.201z"/>
<path fill="#FFFFFF" stroke="#272D29" d="M92.397,37.146c0,3.069-0.768,5.3-2.302,6.692c-1.535,1.393-3.584,2.089-6.147,2.089
	c-1.994,0-4.225-0.364-6.693-1.092l0.522-3.418c1.044,0.349,2.049,0.609,3.015,0.783c0.965,0.174,1.827,0.262,2.587,0.262
	c1.835,0,3.172-0.403,4.011-1.211c0.838-0.807,1.258-2.064,1.258-3.773v-3.893c-0.76,0.634-1.662,1.14-2.706,1.52
	c-1.044,0.379-2.2,0.569-3.465,0.569c-1.424,0-2.738-0.246-3.94-0.736c-1.203-0.49-2.231-1.187-3.085-2.088
	c-0.854-0.902-1.519-1.978-1.994-3.229c-0.475-1.249-0.712-2.618-0.712-4.105c0-1.455,0.261-2.824,0.783-4.106
	c0.522-1.281,1.234-2.396,2.136-3.347c0.902-0.949,1.946-1.701,3.133-2.254c1.187-0.553,2.444-0.831,3.773-0.831
	c1.297,0,2.492,0.207,3.584,0.617c1.092,0.412,1.985,0.95,2.682,1.614v-1.852h3.56V37.146z M88.647,20.817
	c-0.602-0.729-1.4-1.36-2.397-1.899c-0.997-0.537-2.081-0.807-3.251-0.807c-0.981,0-1.875,0.182-2.682,0.546
	c-0.807,0.364-1.495,0.878-2.064,1.543c-0.57,0.664-1.013,1.447-1.329,2.35c-0.317,0.901-0.475,1.891-0.475,2.967
	c0,0.981,0.15,1.906,0.451,2.776c0.3,0.871,0.743,1.622,1.329,2.255c0.585,0.634,1.305,1.14,2.16,1.52s1.835,0.569,2.943,0.569
	c1.044,0,2.024-0.214,2.943-0.641c0.917-0.428,1.709-1.036,2.374-1.828V20.817z"/>
<path fill="#FFFFFF" stroke="#272D29" d="M111.574,35.295V22.763c0-1.55-0.309-2.713-0.926-3.489
	c-0.617-0.774-1.654-1.162-3.109-1.162c-1.108,0-2.208,0.332-3.299,0.996c-1.092,0.665-2.017,1.409-2.777,2.231v13.956h-3.75V15.358
	h3.56v3.039c1.044-1.045,2.199-1.875,3.465-2.493c1.265-0.617,2.563-0.926,3.893-0.926c2.31,0,4.003,0.634,5.079,1.899
	c1.075,1.266,1.614,2.896,1.614,4.89v13.528H111.574z"/>
<path fill="#272D29" d="M132.075,12.205c7.561,0,13.044,5.76,13.044,12.989s-5.483,13.017-13.044,13.017
	c-7.533,0-13.017-5.788-13.017-13.017S124.542,12.205,132.075,12.205z M133.377,20.651h2.021v-1.634h-6.674l0.276,1.634h1.662v8.752
	h-1.911v1.605h6.675l-0.277-1.605h-1.772V20.651z"/>
<path fill="#272D29" d="M159.82,12.205c7.561,0,13.044,5.76,13.044,12.989S167.381,38.21,159.82,38.21
	c-7.533,0-13.017-5.788-13.017-13.017S152.287,12.205,159.82,12.205z M160.291,23.753c-1.44-0.554-2.188-0.997-2.188-1.689
	s0.554-1.107,2.021-1.107c0.941,0,2.05,0.332,2.908,0.887l0.388-2.216c-0.831-0.388-1.828-0.775-3.213-0.775
	c-2.77,0-4.569,1.273-4.569,3.434c0,1.801,1.163,2.687,3.711,3.684c1.357,0.526,2.243,0.97,2.243,1.8
	c0,0.859-0.609,1.302-1.911,1.302c-1.219,0-2.687-0.471-3.767-1.024l-0.388,2.271c1.108,0.499,2.604,0.859,4.071,0.859
	c2.604,0,4.459-1.302,4.459-3.684C164.058,26.024,163.227,24.889,160.291,23.753z"/>
<path fill="#FFFFFF" stroke="#272D29" d="M193.554,24.567c0,0.349-0.008,0.664-0.023,0.949c-0.017,0.284-0.056,0.602-0.119,0.949
	h-14.62c0.095,0.854,0.301,1.646,0.617,2.373c0.316,0.729,0.767,1.361,1.353,1.899s1.329,0.957,2.231,1.258
	c0.901,0.301,1.985,0.451,3.252,0.451c0.822,0,1.716-0.103,2.682-0.309c0.965-0.206,1.906-0.467,2.824-0.783l0.665,3.18
	c-1.14,0.349-2.279,0.626-3.418,0.831c-1.14,0.205-2.168,0.309-3.086,0.309c-1.804,0-3.378-0.261-4.723-0.783
	c-1.346-0.522-2.469-1.25-3.37-2.184c-0.902-0.934-1.575-2.025-2.018-3.275c-0.443-1.25-0.665-2.587-0.665-4.011
	c0-1.36,0.214-2.675,0.642-3.94c0.427-1.266,1.051-2.381,1.875-3.347c0.822-0.965,1.835-1.732,3.037-2.302
	c1.203-0.569,2.579-0.854,4.13-0.854c1.425,0,2.674,0.246,3.75,0.736c1.076,0.491,1.985,1.163,2.729,2.018
	c0.743,0.854,1.306,1.867,1.686,3.038S193.554,23.207,193.554,24.567z M190.089,23.617c-0.127-1.55-0.634-2.855-1.52-3.916
	c-0.886-1.06-2.215-1.59-3.987-1.59c-1.613,0-2.903,0.49-3.868,1.472c-0.966,0.981-1.56,2.325-1.78,4.034H190.089z"/>
<path fill="#FFFFFF" stroke="#272D29" d="M210.072,35.295v-2.089c-0.823,0.792-1.748,1.4-2.776,1.828
	c-1.029,0.427-2.16,0.641-3.395,0.641c-0.98,0-1.906-0.143-2.776-0.428c-0.871-0.284-1.638-0.703-2.303-1.258
	c-0.664-0.553-1.187-1.226-1.566-2.018c-0.38-0.79-0.569-1.692-0.569-2.705c0-0.918,0.182-1.757,0.546-2.516
	c0.363-0.76,0.87-1.408,1.519-1.946s1.408-0.966,2.279-1.282c0.87-0.315,1.811-0.475,2.824-0.475c1.392,0,2.531,0.135,3.418,0.403
	c0.885,0.27,1.756,0.578,2.61,0.926V23.19c0-1.709-0.412-2.959-1.234-3.75c-0.823-0.791-2.152-1.187-3.987-1.187
	c-0.949,0-1.883,0.095-2.801,0.286c-0.918,0.189-1.725,0.427-2.421,0.711l-0.617-3.228c0.918-0.285,1.946-0.529,3.086-0.736
	c1.139-0.205,2.215-0.309,3.228-0.309c2.88,0,5,0.688,6.361,2.065c1.36,1.377,2.041,3.506,2.041,6.385v11.867H210.072z
	 M209.883,27.51c-1.013-0.537-1.892-0.941-2.635-1.21c-0.744-0.269-1.669-0.403-2.776-0.403c-1.298,0-2.326,0.284-3.086,0.854
	c-0.76,0.569-1.139,1.408-1.139,2.516s0.395,1.954,1.187,2.539c0.79,0.586,1.93,0.879,3.418,0.879c1.044,0,1.985-0.229,2.824-0.688
	c0.838-0.459,1.573-1.052,2.207-1.78V27.51z"/>
<path fill="#FFFFFF" stroke="#272D29" d="M230.815,29.409c0,0.823-0.159,1.613-0.475,2.373c-0.316,0.76-0.768,1.424-1.353,1.994
	c-0.586,0.569-1.282,1.028-2.089,1.376s-1.701,0.522-2.682,0.522c-1.394,0-2.675-0.23-3.846-0.688s-2.263-1.1-3.275-1.923
	l1.899-2.658c0.759,0.697,1.598,1.243,2.516,1.638c0.917,0.396,1.756,0.594,2.516,0.594c1.171,0,2.033-0.253,2.587-0.76
	c0.554-0.506,0.831-1.202,0.831-2.089c0-0.664-0.23-1.202-0.688-1.613c-0.459-0.411-1.037-0.775-1.732-1.092
	c-0.696-0.316-1.44-0.633-2.231-0.949s-1.535-0.696-2.23-1.14c-0.696-0.442-1.274-0.988-1.732-1.638
	c-0.46-0.648-0.688-1.463-0.688-2.444c0-0.791,0.158-1.543,0.475-2.255c0.315-0.712,0.767-1.345,1.353-1.899
	c0.585-0.553,1.298-0.989,2.137-1.305c0.838-0.316,1.779-0.475,2.824-0.475c1.044,0,2.08,0.19,3.108,0.57s1.923,0.823,2.683,1.329
	l-1.661,2.801c-0.634-0.443-1.299-0.83-1.994-1.163c-0.696-0.332-1.456-0.499-2.278-0.499c-1.14,0-1.963,0.246-2.469,0.736
	c-0.506,0.491-0.759,1.1-0.759,1.827c0,0.57,0.229,1.037,0.688,1.4c0.459,0.364,1.028,0.705,1.709,1.021
	c0.681,0.317,1.424,0.634,2.231,0.95c0.807,0.316,1.55,0.712,2.23,1.187s1.25,1.053,1.709,1.732
	C230.586,27.55,230.815,28.396,230.815,29.409z"/>
<path fill="#FFFFFF" stroke="#272D29" d="M238.789,45.548h-3.75l5.981-12.151l-8.402-18.039h4.178l6.076,14.289l5.98-14.289h4.035
	L238.789,45.548z"/>
</svg>
