<?xml version="1.0" encoding="utf-8"?>
<!-- Generator: Adobe Illustrator 14.0.0, SVG Export Plug-In  -->
<!DOCTYPE svg PUBLIC "-//W3C//DTD SVG 1.1//EN" "http://www.w3.org/Graphics/SVG/1.1/DTD/svg11.dtd" [
	<!ENTITY ns_flows "http://ns.adobe.com/Flows/1.0/">
]>
<svg version="1.1"
	 xmlns="http://www.w3.org/2000/svg" xmlns:xlink="http://www.w3.org/1999/xlink" xmlns:a="http://ns.adobe.com/AdobeSVGViewerExtensions/3.0/"
	 x="0px" y="0px" width="288px" height="40px" viewBox="-9.746 -6.334 288 40" enable-background="new -9.746 -6.334 288 40"
	 xml:space="preserve">
<defs>
</defs>
<polygon points="45.87,2.834 47.192,0 11.191,0 9.87,2.834 "/>
<polygon points="8.938,4.834 0,24 36,24 44.938,4.834 "/>
<path d="M66.611,23.5h-4.078v-2.438c-0.677,0.948-1.477,1.653-2.398,2.117s-1.852,0.695-2.789,0.695
	c-1.906,0-3.539-0.769-4.898-2.305s-2.039-3.68-2.039-6.43c0-2.812,0.661-4.95,1.984-6.414c1.323-1.463,2.995-2.195,5.016-2.195
	c1.854,0,3.458,0.771,4.812,2.312v-8.25h4.391V23.5z M54.893,14.844c0,1.771,0.245,3.052,0.734,3.844
	c0.708,1.146,1.698,1.719,2.969,1.719c1.01,0,1.87-0.43,2.578-1.289c0.708-0.859,1.062-2.144,1.062-3.852
	c0-1.906-0.344-3.278-1.031-4.117c-0.688-0.838-1.568-1.258-2.641-1.258c-1.042,0-1.914,0.414-2.617,1.242
	S54.893,13.199,54.893,14.844z"/>
<path d="M80.549,18.219l4.375,0.734c-0.562,1.604-1.451,2.825-2.664,3.664c-1.214,0.839-2.732,1.258-4.555,1.258
	c-2.886,0-5.021-0.942-6.406-2.828c-1.094-1.511-1.641-3.417-1.641-5.719c0-2.75,0.719-4.903,2.156-6.461
	c1.438-1.557,3.255-2.336,5.453-2.336c2.469,0,4.417,0.815,5.844,2.445c1.427,1.63,2.109,4.128,2.047,7.492h-11
	c0.031,1.302,0.385,2.315,1.062,3.039c0.677,0.724,1.521,1.086,2.531,1.086c0.688,0,1.266-0.188,1.734-0.562
	S80.309,19.052,80.549,18.219z M80.799,13.782c-0.031-1.271-0.359-2.237-0.984-2.898c-0.625-0.661-1.386-0.992-2.281-0.992
	c-0.958,0-1.75,0.349-2.375,1.047c-0.625,0.698-0.933,1.646-0.922,2.844H80.799z"/>
<path d="M87.189,18.766l4.406-0.672c0.188,0.854,0.567,1.503,1.141,1.945c0.573,0.442,1.375,0.664,2.406,0.664
	c1.135,0,1.989-0.208,2.562-0.625c0.385-0.292,0.578-0.683,0.578-1.172c0-0.333-0.104-0.609-0.312-0.828
	c-0.219-0.208-0.708-0.401-1.469-0.578c-3.542-0.781-5.787-1.495-6.734-2.141c-1.312-0.896-1.969-2.141-1.969-3.734
	c0-1.438,0.567-2.646,1.703-3.625c1.135-0.979,2.896-1.469,5.281-1.469c2.271,0,3.958,0.37,5.062,1.109
	c1.104,0.74,1.864,1.833,2.281,3.281l-4.141,0.766c-0.177-0.646-0.513-1.141-1.008-1.484c-0.495-0.344-1.201-0.516-2.117-0.516
	c-1.156,0-1.984,0.162-2.484,0.484c-0.333,0.229-0.5,0.526-0.5,0.891c0,0.312,0.146,0.578,0.438,0.797
	c0.396,0.292,1.763,0.703,4.102,1.234c2.338,0.531,3.971,1.183,4.898,1.953c0.916,0.781,1.375,1.87,1.375,3.266
	c0,1.521-0.636,2.828-1.906,3.922c-1.271,1.094-3.151,1.641-5.641,1.641c-2.261,0-4.05-0.458-5.367-1.375
	C88.458,21.583,87.596,20.339,87.189,18.766z"/>
<path d="M106.533,4.657V0.594h4.391v4.062H106.533z M106.533,23.5V6.907h4.391V23.5H106.533z"/>
<path d="M115.018,24.594l5.016,0.609c0.083,0.583,0.275,0.984,0.578,1.203c0.416,0.312,1.072,0.469,1.969,0.469
	c1.146,0,2.005-0.172,2.578-0.516c0.385-0.229,0.677-0.599,0.875-1.109c0.135-0.364,0.203-1.036,0.203-2.016v-2.422
	c-1.312,1.792-2.969,2.688-4.969,2.688c-2.229,0-3.995-0.942-5.297-2.828c-1.021-1.489-1.531-3.344-1.531-5.562
	c0-2.781,0.669-4.906,2.008-6.375c1.338-1.469,3.002-2.203,4.992-2.203c2.052,0,3.744,0.901,5.078,2.703V6.907h4.109v14.891
	c0,1.958-0.162,3.422-0.484,4.391c-0.323,0.969-0.776,1.729-1.359,2.281c-0.584,0.552-1.362,0.984-2.336,1.297
	c-0.975,0.312-2.206,0.469-3.695,0.469c-2.812,0-4.808-0.481-5.984-1.445c-1.178-0.964-1.766-2.185-1.766-3.664
	C115.002,24.98,115.007,24.802,115.018,24.594z M118.939,14.86c0,1.761,0.341,3.05,1.023,3.867c0.682,0.817,1.523,1.227,2.523,1.227
	c1.072,0,1.979-0.419,2.719-1.258c0.739-0.839,1.109-2.081,1.109-3.727c0-1.719-0.354-2.995-1.062-3.828
	c-0.709-0.833-1.604-1.25-2.688-1.25c-1.053,0-1.92,0.409-2.602,1.227C119.28,11.936,118.939,13.183,118.939,14.86z"/>
<path d="M150.065,23.5h-4.391v-8.469c0-1.792-0.094-2.95-0.281-3.477c-0.188-0.526-0.492-0.935-0.914-1.227
	c-0.422-0.292-0.93-0.438-1.523-0.438c-0.762,0-1.443,0.208-2.047,0.625c-0.605,0.417-1.02,0.969-1.242,1.656
	c-0.225,0.688-0.336,1.958-0.336,3.812V23.5h-4.391V6.907h4.078v2.438c1.447-1.875,3.27-2.812,5.469-2.812
	c0.969,0,1.854,0.175,2.656,0.523c0.801,0.349,1.408,0.794,1.82,1.336c0.41,0.542,0.697,1.156,0.859,1.844
	c0.16,0.688,0.242,1.672,0.242,2.953V23.5z"/>
<path d="M163.409,4.657V0.594h4.391v4.062H163.409z M163.409,23.5V6.907h4.391V23.5H163.409z"/>
<path d="M170.752,18.766l4.406-0.672c0.188,0.854,0.566,1.503,1.141,1.945c0.572,0.442,1.375,0.664,2.406,0.664
	c1.135,0,1.988-0.208,2.562-0.625c0.385-0.292,0.578-0.683,0.578-1.172c0-0.333-0.105-0.609-0.312-0.828
	c-0.219-0.208-0.709-0.401-1.469-0.578c-3.543-0.781-5.787-1.495-6.734-2.141c-1.312-0.896-1.969-2.141-1.969-3.734
	c0-1.438,0.566-2.646,1.703-3.625c1.135-0.979,2.895-1.469,5.281-1.469c2.27,0,3.957,0.37,5.062,1.109
	c1.104,0.74,1.863,1.833,2.281,3.281l-4.141,0.766c-0.178-0.646-0.514-1.141-1.008-1.484c-0.496-0.344-1.201-0.516-2.117-0.516
	c-1.156,0-1.984,0.162-2.484,0.484c-0.334,0.229-0.5,0.526-0.5,0.891c0,0.312,0.145,0.578,0.438,0.797
	c0.395,0.292,1.762,0.703,4.102,1.234c2.338,0.531,3.971,1.183,4.898,1.953c0.916,0.781,1.375,1.87,1.375,3.266
	c0,1.521-0.637,2.828-1.906,3.922c-1.271,1.094-3.152,1.641-5.641,1.641c-2.262,0-4.051-0.458-5.367-1.375
	C172.02,21.583,171.159,20.339,170.752,18.766z"/>
<path d="M208.596,18.219l4.375,0.734c-0.562,1.604-1.451,2.825-2.664,3.664c-1.215,0.839-2.732,1.258-4.555,1.258
	c-2.887,0-5.021-0.942-6.406-2.828c-1.094-1.511-1.641-3.417-1.641-5.719c0-2.75,0.719-4.903,2.156-6.461
	c1.438-1.557,3.254-2.336,5.453-2.336c2.469,0,4.416,0.815,5.844,2.445c1.426,1.63,2.109,4.128,2.047,7.492h-11
	c0.031,1.302,0.385,2.315,1.062,3.039c0.676,0.724,1.52,1.086,2.531,1.086c0.688,0,1.266-0.188,1.734-0.562
	S208.356,19.052,208.596,18.219z M208.846,13.782c-0.031-1.271-0.359-2.237-0.984-2.898c-0.625-0.661-1.387-0.992-2.281-0.992
	c-0.959,0-1.75,0.349-2.375,1.047c-0.625,0.698-0.934,1.646-0.922,2.844H208.846z"/>
<path d="M220.065,11.969l-3.984-0.719c0.447-1.604,1.219-2.792,2.312-3.562c1.094-0.771,2.719-1.156,4.875-1.156
	c1.957,0,3.416,0.232,4.375,0.695c0.957,0.464,1.633,1.052,2.023,1.766c0.391,0.714,0.586,2.023,0.586,3.93l-0.047,5.125
	c0,1.458,0.07,2.534,0.211,3.227s0.402,1.435,0.789,2.227h-4.344c-0.115-0.292-0.256-0.724-0.422-1.297
	c-0.074-0.261-0.125-0.433-0.156-0.516c-0.75,0.729-1.553,1.276-2.406,1.641c-0.855,0.364-1.766,0.547-2.734,0.547
	c-1.709,0-3.055-0.464-4.039-1.391s-1.477-2.099-1.477-3.516c0-0.938,0.223-1.773,0.672-2.508c0.447-0.734,1.074-1.297,1.883-1.688
	c0.807-0.391,1.971-0.731,3.492-1.023c2.051-0.385,3.473-0.745,4.266-1.078v-0.438c0-0.844-0.209-1.445-0.625-1.805
	c-0.418-0.359-1.203-0.539-2.359-0.539c-0.781,0-1.391,0.154-1.828,0.461C220.69,10.66,220.334,11.199,220.065,11.969z
	 M225.94,15.532c-0.562,0.188-1.453,0.411-2.672,0.672s-2.016,0.516-2.391,0.766c-0.574,0.406-0.859,0.922-0.859,1.547
	c0,0.614,0.229,1.146,0.688,1.594c0.457,0.448,1.041,0.672,1.75,0.672c0.791,0,1.547-0.261,2.266-0.781
	c0.531-0.396,0.879-0.88,1.047-1.453c0.113-0.375,0.172-1.089,0.172-2.141V15.532z"/>
<path d="M233.034,18.766l4.406-0.672c0.188,0.854,0.566,1.503,1.141,1.945c0.572,0.442,1.375,0.664,2.406,0.664
	c1.135,0,1.988-0.208,2.562-0.625c0.385-0.292,0.578-0.683,0.578-1.172c0-0.333-0.105-0.609-0.312-0.828
	c-0.219-0.208-0.709-0.401-1.469-0.578c-3.543-0.781-5.787-1.495-6.734-2.141c-1.312-0.896-1.969-2.141-1.969-3.734
	c0-1.438,0.566-2.646,1.703-3.625c1.135-0.979,2.895-1.469,5.281-1.469c2.27,0,3.957,0.37,5.062,1.109
	c1.104,0.74,1.863,1.833,2.281,3.281l-4.141,0.766c-0.178-0.646-0.514-1.141-1.008-1.484c-0.496-0.344-1.201-0.516-2.117-0.516
	c-1.156,0-1.984,0.162-2.484,0.484c-0.334,0.229-0.5,0.526-0.5,0.891c0,0.312,0.145,0.578,0.438,0.797
	c0.395,0.292,1.762,0.703,4.102,1.234c2.338,0.531,3.971,1.183,4.898,1.953c0.916,0.781,1.375,1.87,1.375,3.266
	c0,1.521-0.637,2.828-1.906,3.922c-1.271,1.094-3.152,1.641-5.641,1.641c-2.262,0-4.051-0.458-5.367-1.375
	C234.301,21.583,233.44,20.339,233.034,18.766z"/>
<path d="M250.299,6.907h4.672l3.969,11.781l3.875-11.781h4.547l-5.859,15.969l-1.047,2.891c-0.387,0.969-0.754,1.708-1.102,2.219
	c-0.35,0.511-0.75,0.925-1.203,1.242s-1.012,0.565-1.672,0.742c-0.662,0.177-1.41,0.266-2.242,0.266
	c-0.844,0-1.672-0.089-2.484-0.266l-0.391-3.438c0.688,0.136,1.307,0.203,1.859,0.203c1.02,0,1.775-0.3,2.266-0.898
	c0.488-0.599,0.863-1.362,1.125-2.289L250.299,6.907z"/>
</svg>
